<svg width="162" height="175" viewBox="0 0 162 175" fill="none" xmlns="http://www.w3.org/2000/svg">
	<path
		d="M157.471 53.4976C158.3 53.486 158.962 52.805 158.95 51.9766C158.938 51.1483 158.257 50.4863 157.429 50.4979L157.471 53.4976ZM35.3515 78.4989L36.8435 78.6531L36.8436 78.6529L35.3515 78.4989ZM68.6023 99.5669L67.103 99.6123L67.103 99.6124L68.6023 99.5669ZM2.24481 122.046C1.4275 121.91 0.655292 122.463 0.520039 123.281C0.384786 124.098 0.937704 124.87 1.75502 125.005L2.24481 122.046ZM134.947 74.0391C134.333 74.595 134.285 75.5435 134.841 76.1578C135.397 76.7721 136.345 76.8195 136.96 76.2637L134.947 74.0391ZM158.632 54.6314L157.627 53.5175L157.625 53.5191L158.632 54.6314ZM157.581 48.6904L158.146 47.3007L158.143 47.2994L157.581 48.6904ZM132.467 37.8701C131.645 37.7655 130.894 38.3469 130.79 39.1687C130.685 39.9905 131.266 40.7415 132.088 40.8461L132.467 37.8701ZM157.45 51.9978C157.429 50.4979 157.428 50.4979 157.427 50.498C157.426 50.498 157.425 50.498 157.423 50.498C157.419 50.4981 157.413 50.4982 157.406 50.4983C157.391 50.4985 157.369 50.4988 157.34 50.4993C157.282 50.5002 157.195 50.5016 157.081 50.5036C156.853 50.5076 156.515 50.5139 156.076 50.5231C155.196 50.5416 153.906 50.5719 152.265 50.6194C148.984 50.7142 144.294 50.8774 138.66 51.1508C127.393 51.6976 112.335 52.686 97.1871 54.4531C82.0574 56.218 66.7626 58.768 55.0584 62.459C49.2131 64.3023 44.1726 66.4577 40.4819 69.0006C36.8098 71.5307 34.2448 74.6093 33.8594 78.345L36.8436 78.6529C37.0982 76.1849 38.8288 73.7827 42.184 71.4709C45.5207 69.172 50.2391 67.1244 55.9606 65.3201C67.3899 61.7158 82.4597 59.1914 97.5347 57.4329C112.592 55.6764 127.578 54.6922 138.805 54.1473C144.417 53.8749 149.087 53.7125 152.352 53.6181C153.985 53.5709 155.266 53.5408 156.139 53.5225C156.575 53.5133 156.909 53.5071 157.133 53.5032C157.246 53.5012 157.331 53.4998 157.387 53.4989C157.415 53.4985 157.437 53.4982 157.451 53.4979C157.458 53.4978 157.463 53.4978 157.466 53.4977C157.468 53.4977 157.469 53.4977 157.47 53.4977C157.471 53.4976 157.471 53.4976 157.45 51.9978ZM33.8594 78.3448C33.644 80.4298 34.0954 82.2551 35.0792 83.8239C36.0453 85.3647 37.4758 86.5819 39.1115 87.5748C42.3488 89.54 46.7275 90.8202 50.9332 91.9289C55.2454 93.0656 59.3736 94.0234 62.4941 95.3258C65.7258 96.6745 67.0559 98.0578 67.103 99.6123L70.1016 99.5216C69.994 95.9639 66.9087 93.9174 63.6496 92.5572C60.2794 91.1506 55.8415 90.1203 51.6979 89.028C47.4477 87.9076 43.4808 86.7177 40.6683 85.0104C39.279 84.167 38.2585 83.2472 37.6208 82.2302C37.0007 81.2412 36.6953 80.0878 36.8435 78.6531L33.8594 78.3448ZM67.103 99.6124C67.2011 102.85 65.6284 106.236 62.4139 109.478C59.2033 112.715 54.4508 115.7 48.4914 118.071C36.5793 122.81 20.0922 124.999 2.24481 122.046L1.75502 125.005C20.1019 128.042 37.1453 125.814 49.6005 120.858C55.8246 118.382 60.965 115.199 64.544 111.59C68.1191 107.985 70.2327 103.847 70.1016 99.5215L67.103 99.6124ZM136.96 76.2637L159.638 55.7437L157.625 53.5191L134.947 74.0391L136.96 76.2637ZM159.636 55.7453C162.414 53.2399 161.598 48.7033 158.146 47.3007L157.017 50.08C158.429 50.6538 158.752 52.5028 157.627 53.5175L159.636 55.7453ZM158.143 47.2994C154.15 45.6877 148.512 43.4389 143.518 41.5472C141.022 40.6018 138.676 39.7415 136.772 39.0935C134.931 38.4668 133.346 37.982 132.467 37.8701L132.088 40.8461C132.607 40.9121 133.887 41.2803 135.806 41.9335C137.662 42.5655 139.972 43.4121 142.455 44.3527C147.419 46.2329 153.034 48.4722 157.02 50.0813L158.143 47.2994Z"
		fill="#101828" />
</svg>