<svg width="346" height="374" viewBox="0 0 346 374" fill="none" xmlns="http://www.w3.org/2000/svg">
	<path
		d="M4.86944 2.50373C4.96535 1.68087 4.37603 0.936068 3.55318 0.840163C2.73032 0.744259 1.98552 1.33357 1.88961 2.15643L4.86944 2.50373ZM192.4 195.96L193.413 194.854L193.413 194.854L192.4 195.96ZM284.73 329.4L283.77 330.553L283.77 330.553L284.73 329.4ZM340.933 363.939C341.734 364.153 342.556 363.677 342.769 362.876C342.982 362.076 342.506 361.254 341.706 361.041L340.933 363.939ZM320.013 371.057C319.244 371.364 318.869 372.237 319.177 373.007C319.484 373.776 320.357 374.15 321.126 373.843L320.013 371.057ZM343.62 363.24L344.176 364.633C344.572 364.475 344.882 364.156 345.028 363.756C345.175 363.356 345.144 362.912 344.944 362.536L343.62 363.24ZM334.723 340.278C334.799 339.453 334.193 338.723 333.368 338.646C332.543 338.57 331.812 339.177 331.736 340.002L334.723 340.278ZM3.37953 2.33008C1.88961 2.15643 1.88954 2.15707 1.88943 2.15799C1.88935 2.15867 1.88921 2.15987 1.88906 2.16122C1.88874 2.16393 1.8883 2.16775 1.88774 2.17266C1.88662 2.1825 1.88499 2.19673 1.8829 2.21532C1.87872 2.25249 1.87266 2.30705 1.8649 2.37858C1.84939 2.52163 1.82712 2.73253 1.79963 3.0078C1.74466 3.55832 1.66879 4.36638 1.58435 5.40407C1.41549 7.47928 1.21228 10.4739 1.0734 14.1644C0.795744 21.5428 0.774644 31.7172 1.80334 42.8963C3.85211 65.1606 10.0975 91.8042 27.1858 108.057L29.2533 105.883C13.0015 90.4259 6.82695 64.7494 4.79072 42.6214C3.77691 31.6041 3.79706 21.5642 4.07128 14.2773C4.20834 10.6352 4.40872 7.68439 4.57447 5.64737C4.65734 4.62895 4.73153 3.83919 4.78478 3.30591C4.81141 3.03928 4.8328 2.8368 4.84742 2.70193C4.85473 2.6345 4.86035 2.58398 4.86409 2.5508C4.86595 2.53421 4.86735 2.52196 4.86825 2.51409C4.8687 2.51016 4.86903 2.50733 4.86923 2.5056C4.86933 2.50473 4.86938 2.50427 4.86943 2.50383C4.86945 2.50364 4.86944 2.50373 3.37953 2.33008ZM27.1858 108.057C35.687 116.143 47.496 123.199 61.0141 129.863C74.5411 136.531 89.9001 142.862 105.535 149.446C136.896 162.653 169.351 176.882 191.386 197.066L193.413 194.854C170.928 174.258 137.963 159.847 106.699 146.681C91.0215 140.079 75.7667 133.791 62.3406 127.172C48.9056 120.549 37.4221 113.653 29.2533 105.883L27.1858 108.057ZM191.386 197.066C218.65 222.044 229.825 245.353 240.111 267.46C250.413 289.603 259.869 310.66 283.77 330.553L285.689 328.247C262.36 308.83 253.141 288.353 242.831 266.195C232.505 244.002 221.129 220.246 193.413 194.854L191.386 197.066ZM283.77 330.553C299.786 343.882 314.036 352.218 324.303 357.227C329.436 359.731 333.574 361.404 336.437 362.453C337.869 362.978 338.983 363.347 339.744 363.586C340.124 363.705 340.417 363.792 340.616 363.85C340.716 363.879 340.793 363.901 340.846 363.915C340.872 363.923 340.893 363.928 340.907 363.932C340.915 363.934 340.921 363.936 340.925 363.937C340.927 363.938 340.929 363.938 340.93 363.939C340.931 363.939 340.932 363.939 340.932 363.939C340.933 363.939 340.933 363.939 341.32 362.49C341.706 361.041 341.706 361.041 341.707 361.041C341.707 361.041 341.707 361.041 341.707 361.041C341.707 361.041 341.706 361.041 341.705 361.04C341.703 361.04 341.7 361.039 341.696 361.038C341.686 361.035 341.671 361.031 341.649 361.025C341.607 361.013 341.541 360.995 341.451 360.969C341.273 360.917 341.002 360.836 340.643 360.724C339.925 360.498 338.856 360.144 337.469 359.636C334.696 358.62 330.654 356.987 325.619 354.531C315.548 349.617 301.504 341.408 285.689 328.247L283.77 330.553ZM321.126 373.843L344.176 364.633L343.063 361.847L320.013 371.057L321.126 373.843ZM343.62 363.24C344.944 362.536 344.944 362.536 344.944 362.536C344.944 362.536 344.944 362.535 344.944 362.535C344.943 362.535 344.943 362.534 344.942 362.533C344.941 362.53 344.939 362.527 344.937 362.522C344.932 362.513 344.924 362.499 344.914 362.48C344.894 362.442 344.865 362.386 344.826 362.313C344.748 362.166 344.635 361.951 344.49 361.675C344.2 361.122 343.786 360.33 343.29 359.369C342.297 357.446 340.977 354.853 339.668 352.169C338.356 349.48 337.064 346.718 336.12 344.451C335.647 343.315 335.272 342.329 335.026 341.551C334.903 341.161 334.819 340.846 334.771 340.604C334.718 340.34 334.726 340.251 334.723 340.278L331.736 340.002C331.698 340.407 331.757 340.831 331.829 341.193C331.906 341.578 332.023 342.005 332.165 342.454C332.449 343.354 332.862 344.432 333.35 345.604C334.328 347.953 335.651 350.777 336.971 353.484C338.294 356.196 339.625 358.81 340.624 360.745C341.124 361.713 341.541 362.512 341.833 363.069C341.98 363.348 342.095 363.566 342.174 363.715C342.213 363.789 342.243 363.846 342.264 363.885C342.274 363.904 342.282 363.919 342.287 363.929C342.29 363.934 342.292 363.938 342.293 363.94C342.294 363.941 342.294 363.942 342.294 363.943C342.295 363.943 342.295 363.944 342.295 363.944C342.295 363.944 342.295 363.944 343.62 363.24Z"
		fill="#101828" />
</svg>