<svg width="200" height="200" viewBox="0 0 200 200" fill="none" xmlns="http://www.w3.org/2000/svg">
	<g clip-path="url(#clip0_578_183)">
		<rect width="200" height="200" rx="52.6316" fill="currentColor" />
		<path fill-rule="evenodd" clip-rule="evenodd"
			d="M49.4231 74.0002C51.446 80.9936 54.7236 87.4552 58.9963 93.126L58.999 93.1234C71.288 81.2823 87.9953 74.0002 106.393 74.0002C124.765 74.0002 141.453 81.2641 153.737 93.074L153.842 93.175C156.042 95.298 158.101 97.5673 160 99.9664C158.121 102.343 156.087 104.592 153.913 106.694L153.81 106.794C141.519 118.659 124.791 125.961 106.37 125.961C87.9493 125.961 71.2208 118.659 58.9302 106.794L58.8803 106.861C54.6433 112.531 51.3975 118.984 49.4007 125.961H40.0234C42.393 116.348 46.8012 107.53 52.7633 99.9953L52.6934 99.9069C46.7557 92.3876 42.364 83.591 40 74.0002H49.4231ZM132.205 100.028C132.205 103.168 129.659 105.713 126.52 105.713C123.38 105.713 120.834 103.168 120.834 100.028C120.834 96.8884 123.38 94.3431 126.52 94.3431C129.659 94.3431 132.205 96.8884 132.205 100.028Z"
			fill="white" />
		<path d="M200 100L153 100" stroke="white" stroke-width="5" />
		<path d="M47 80.9995L0 80.9995" stroke="white" stroke-width="5" />
		<path d="M100 81L100 0" stroke="white" stroke-width="5" />
		<path d="M186 186L121 121" stroke="white" stroke-width="5" />
		<path d="M-4.82976e-06 199.999L83 116.999" stroke="white" stroke-width="5" />
	</g>
	<defs>
		<clipPath id="clip0_578_183">
			<rect width="200" height="200" rx="52.6316" fill="white" />
		</clipPath>
	</defs>
</svg>